<?xml version="1.0" encoding="utf-8"?>
<!-- Generator: Adobe Illustrator 16.0.0, SVG Export Plug-In . SVG Version: 6.00 Build 0)  -->
<!DOCTYPE svg PUBLIC "-//W3C//DTD SVG 1.1//EN" "http://www.w3.org/Graphics/SVG/1.1/DTD/svg11.dtd">
<svg version="1.1" id="Layer_1" xmlns="http://www.w3.org/2000/svg" xmlns:xlink="http://www.w3.org/1999/xlink" x="0px" y="0px"
	 width="672.054px" height="247.597px" viewBox="0.5 560.5 672.054 247.597" enable-background="new 0.5 560.5 672.054 247.597"
	 xml:space="preserve">
<g>
	<path fill="#FFFFFF" d="M133.003,760.919h-37.5V643.634H40.132v117.285h-37.5v-145.41h130.371V760.919z"/>
	<path fill="#FFFFFF" d="M204.39,635.626h-37.207v-26.66h37.207V635.626z M203.413,760.919h-35.254V651.251h35.254V760.919z"/>
	<path fill="#FFFFFF" d="M304.195,763.751c-10.808,0-20.786-1.596-29.932-4.785c-9.147-3.189-17.009-7.942-23.584-14.258
		c-6.577-6.314-11.67-14.192-15.283-23.633c-3.613-9.439-5.42-20.345-5.42-32.715c0-11.523,1.724-21.973,5.176-31.348
		c3.45-9.375,8.462-17.415,15.039-24.121c6.314-6.445,14.144-11.426,23.486-14.941c9.341-3.516,19.546-5.273,30.615-5.273
		c6.119,0,11.636,0.342,16.553,1.025c4.915,0.684,9.456,1.579,13.623,2.686c4.361,1.237,8.316,2.622,11.865,4.15
		c3.548,1.53,6.656,2.946,9.326,4.248v35.254h-4.297c-1.823-1.553-4.118-3.399-6.885-5.538c-2.768-2.138-5.908-4.243-9.424-6.317
		c-3.581-2.072-7.456-3.821-11.621-5.246c-4.167-1.425-8.627-2.138-13.379-2.138c-5.273,0-10.288,0.829-15.039,2.486
		c-4.753,1.657-9.147,4.402-13.184,8.235c-3.842,3.704-6.95,8.609-9.326,14.716c-2.377,6.106-3.564,13.513-3.564,22.22
		c0,9.096,1.285,16.698,3.857,22.804c2.571,6.108,5.811,10.916,9.717,14.423c3.97,3.573,8.398,6.125,13.281,7.65
		c4.883,1.528,9.7,2.291,14.453,2.291c4.556,0,9.065-0.679,13.525-2.04c4.458-1.359,8.577-3.206,12.354-5.539
		c3.189-1.877,6.152-3.885,8.887-6.022c2.735-2.137,4.98-3.984,6.738-5.539h3.905v34.766c-3.646,1.628-7.129,3.159-10.449,4.59
		c-3.32,1.433-6.804,2.67-10.449,3.711c-4.753,1.367-9.213,2.408-13.379,3.125C317.215,763.394,311.485,763.751,304.195,763.751z"/>
	<path fill="#FFFFFF" d="M513.57,760.919h-37.5v-64.063h-55.371v64.063h-37.5v-145.41h37.5v53.223h55.371v-53.223h37.5V760.919z"/>
	<path fill="#FFFFFF" d="M672.554,760.919H635.25v-53.32h-20.384l-36.649,53.32h-44.433l43.457-60.254
		c-8.789-3.775-15.674-9.114-20.653-16.016c-4.98-6.9-7.472-15.95-7.472-27.148c0-7.422,1.645-13.899,4.933-19.434
		c3.287-5.533,7.471-10.059,12.549-13.574c4.427-3.06,9.814-5.322,16.162-6.787c6.348-1.465,13.623-2.197,21.826-2.197h67.969
		V760.919L672.554,760.919z M635.25,681.427v-39.16h-18.556c-5.664,0-10.025,0.18-13.086,0.537c-3.061,0.358-6.021,1.611-8.887,3.76
		c-2.214,1.628-3.906,3.76-5.078,6.396c-1.172,2.636-1.758,5.551-1.758,8.74c0,3.32,0.618,6.299,1.854,8.936
		c1.236,2.637,2.962,4.802,5.177,6.494c2.474,1.953,5.387,3.159,8.739,3.613c3.354,0.456,7.765,0.684,13.232,0.684H635.25z"/>
</g>
<g>
	<path fill="#FFFFFF" d="M17.131,789.303c-0.501,1.279-0.97,2.383-1.406,3.312l-3.782,8.306H8.088L0.5,787.004h3.814l4.357,8.672
		c0.578,1.144,1.015,2.057,1.312,2.739h0.099c0.262-0.703,0.696-1.719,1.302-3.047l3.906-8.364h3.814l4.254,8.364
		c0.571,1.133,1.044,2.147,1.418,3.047h0.099c0.396-0.898,0.833-1.813,1.313-2.739l4.359-8.672h3.814l-7.793,13.915h-4.009
		l-3.884-8.306c-0.465-0.986-0.946-2.091-1.444-3.312L17.131,789.303L17.131,789.303z"/>
	<path fill="#FFFFFF" d="M70.147,789.303c-0.501,1.279-0.97,2.383-1.406,3.312l-3.782,8.306h-3.855l-7.588-13.916h3.814l4.357,8.672
		c0.578,1.144,1.015,2.057,1.312,2.739h0.098c0.262-0.703,0.696-1.719,1.302-3.047l3.906-8.364h3.814l4.254,8.364
		c0.571,1.133,1.043,2.147,1.418,3.047h0.1c0.396-0.898,0.833-1.813,1.312-2.739l4.359-8.672h3.814l-7.794,13.916h-4.008
		l-3.885-8.306c-0.465-0.986-0.946-2.09-1.444-3.312H70.147L70.147,789.303z"/>
	<path fill="#FFFFFF" d="M123.163,789.303c-0.501,1.279-0.97,2.383-1.406,3.312l-3.782,8.306h-3.854l-7.589-13.916h3.814
		l4.357,8.672c0.577,1.144,1.015,2.057,1.312,2.739h0.098c0.262-0.703,0.696-1.719,1.302-3.047l3.906-8.364h3.814l4.254,8.364
		c0.57,1.133,1.043,2.147,1.418,3.047h0.099c0.396-0.898,0.833-1.813,1.313-2.739l4.359-8.672h3.814l-7.794,13.916h-4.009
		l-3.884-8.306c-0.465-0.986-0.946-2.09-1.444-3.312H123.163L123.163,789.303z"/>
	<path fill="#FFFFFF" d="M161.394,800.919v-2.856h4.676v2.856H161.394z"/>
	<path fill="#FFFFFF" d="M211.95,793.8c0,0.967-0.161,1.824-0.482,2.57c-0.321,0.748-0.746,1.398-1.272,1.956
		c-0.528,0.557-1.146,1.022-1.854,1.398s-1.442,0.68-2.2,0.908c-0.758,0.229-1.528,0.396-2.312,0.498
		c-0.783,0.103-1.52,0.153-2.211,0.153c-1.434,0-2.678-0.141-3.733-0.417c-1.055-0.279-2.002-0.691-2.842-1.238h-0.072v8.101h-3.742
		v-20.728h2.879l0.812,1.582h0.074c0.213-0.195,0.488-0.386,0.825-0.571c0.336-0.186,0.787-0.383,1.354-0.593
		c0.566-0.21,1.247-0.394,2.042-0.55c0.795-0.156,1.661-0.234,2.596-0.234c1.313,0,2.58,0.132,3.802,0.396
		c1.222,0.264,2.301,0.684,3.236,1.26c0.936,0.576,1.686,1.316,2.252,2.219C211.666,791.415,211.95,792.511,211.95,793.8z
		 M207.963,793.829c0-0.812-0.145-1.538-0.433-2.184c-0.289-0.645-0.722-1.193-1.299-1.646c-0.578-0.455-1.287-0.804-2.128-1.048
		c-0.842-0.244-1.815-0.366-2.92-0.366c-0.792,0-1.514,0.063-2.166,0.19c-0.652,0.127-1.242,0.287-1.77,0.482
		s-0.982,0.405-1.361,0.63c-0.379,0.226-0.685,0.425-0.916,0.602v7.279c0.808,0.488,1.729,0.874,2.76,1.157
		c1.031,0.283,2.141,0.425,3.329,0.425c0.726,0,1.493-0.081,2.302-0.24c0.808-0.162,1.555-0.449,2.24-0.865
		c0.685-0.414,1.25-0.979,1.695-1.691C207.741,795.842,207.963,794.933,207.963,793.829z"/>
	<path fill="#FFFFFF" d="M235.263,783.766v-2.534h3.814v2.534H235.263z M235.361,800.919v-13.916h3.814v13.916H235.361z"/>
	<path fill="#FFFFFF" d="M266.672,790.709c0,0.381,0.136,0.693,0.409,0.938s0.638,0.442,1.095,0.594
		c0.458,0.151,0.987,0.275,1.588,0.374c0.601,0.098,1.223,0.186,1.865,0.264c0.882,0.117,1.716,0.247,2.502,0.388
		c0.786,0.144,1.512,0.354,2.178,0.639c0.666,0.282,1.203,0.667,1.612,1.148c0.409,0.484,0.614,1.111,0.614,1.883
		c0,0.703-0.23,1.326-0.689,1.867c-0.459,0.543-1.107,0.996-1.944,1.363c-0.836,0.365-1.837,0.645-3.002,0.834
		c-1.165,0.191-2.444,0.286-3.839,0.286c-0.853,0-1.628-0.027-2.326-0.081c-0.698-0.054-1.313-0.122-1.846-0.205
		c-0.533-0.082-0.988-0.168-1.366-0.256c-0.378-0.088-0.689-0.171-0.935-0.249v-1.904c0.966,0.234,1.924,0.42,2.875,0.558
		c0.951,0.137,1.998,0.204,3.141,0.204c0.902,0,1.715-0.049,2.44-0.146c0.725-0.098,1.349-0.241,1.873-0.433
		c0.523-0.189,0.926-0.43,1.208-0.718c0.282-0.288,0.423-0.623,0.423-1.004c0-0.391-0.129-0.713-0.386-0.967
		c-0.258-0.254-0.604-0.464-1.039-0.63s-0.938-0.303-1.51-0.41c-0.572-0.107-1.172-0.205-1.8-0.293
		c-0.821-0.107-1.655-0.234-2.5-0.381c-0.845-0.147-1.615-0.353-2.307-0.615c-0.692-0.263-1.252-0.622-1.679-1.077
		c-0.427-0.453-0.641-1.037-0.641-1.75c0-0.731,0.222-1.367,0.665-1.903c0.443-0.537,1.042-0.981,1.796-1.333
		c0.755-0.353,1.632-0.615,2.633-0.791c1-0.177,2.059-0.265,3.175-0.265c1.296,0,2.498,0.073,3.605,0.221
		c1.107,0.146,2.112,0.332,3.015,0.557v1.934c-0.96-0.225-1.933-0.406-2.917-0.549c-0.984-0.142-1.997-0.218-3.038-0.228
		c-0.88,0-1.633,0.054-2.257,0.161c-0.624,0.106-1.137,0.256-1.537,0.446c-0.4,0.189-0.692,0.415-0.876,0.674
		C266.764,790.111,266.672,790.396,266.672,790.709z"/>
	<path fill="#FFFFFF" d="M305.144,788.937h0.074c0.426-0.321,0.898-0.623,1.415-0.899c0.517-0.279,1.095-0.522,1.735-0.732
		s1.341-0.374,2.104-0.491c0.763-0.116,1.596-0.176,2.498-0.176c1.066,0,2.067,0.088,3.002,0.265
		c0.935,0.176,1.747,0.459,2.436,0.85s1.234,0.901,1.637,1.53c0.402,0.631,0.603,1.403,0.603,2.321v9.316h-3.814v-8.95
		c0-1.201-0.39-2.064-1.169-2.593c-0.78-0.527-1.916-0.791-3.409-0.791c-1.313,0-2.584,0.218-3.814,0.652
		c-1.23,0.434-2.289,1.032-3.174,1.794v9.888h-3.814v-13.916h2.953L305.144,788.937z"/>
	<path fill="#FFFFFF" d="M342.214,787.003h3.814l7.261,10.913h0.149l7.453-10.913h3.814l-14.479,20.729h-3.79l4.996-7.091
		L342.214,787.003z"/>
	<path fill="#FFFFFF" d="M400.152,799.381h-0.099c-0.313,0.234-0.706,0.467-1.181,0.696c-0.477,0.229-1.025,0.435-1.649,0.615
		c-0.624,0.18-1.304,0.323-2.042,0.432s-1.526,0.161-2.362,0.161c-1.132,0-2.17-0.102-3.112-0.3c-0.943-0.2-1.757-0.493-2.438-0.879
		c-0.681-0.387-1.21-0.857-1.587-1.414c-0.378-0.558-0.566-1.188-0.566-1.891c0-0.692,0.209-1.313,0.628-1.859
		c0.418-0.548,1.004-1.012,1.76-1.393c0.754-0.381,1.66-0.674,2.719-0.879s2.228-0.308,3.507-0.308
		c1.214,0.01,2.338,0.072,3.372,0.189s1.952,0.265,2.756,0.439h0.1v-0.967c0-0.382-0.043-0.719-0.123-1.012
		c-0.083-0.293-0.223-0.552-0.418-0.775c-0.428-0.47-1.107-0.856-2.042-1.165c-0.937-0.308-2.199-0.461-3.79-0.461
		c-1.182,0-2.293,0.065-3.334,0.196c-1.042,0.134-2.08,0.315-3.113,0.551v-1.904c0.394-0.117,0.856-0.229,1.391-0.329
		c0.533-0.104,1.096-0.191,1.687-0.264c0.591-0.074,1.214-0.131,1.871-0.169c0.655-0.039,1.312-0.06,1.969-0.06
		c2.362,0,4.294,0.249,5.795,0.747s2.58,1.157,3.236,1.979c0.245,0.313,0.422,0.656,0.528,1.031c0.106,0.377,0.16,0.789,0.16,1.238
		v9.287h-3.199L400.152,799.381z M399.955,794.811c-0.702-0.116-1.535-0.229-2.498-0.337c-0.965-0.106-2.025-0.166-3.186-0.176
		c-1.617,0-2.883,0.205-3.797,0.615s-1.372,1.04-1.372,1.89c0,0.431,0.114,0.807,0.343,1.128c0.229,0.322,0.543,0.589,0.943,0.799
		c0.398,0.211,0.874,0.365,1.42,0.47c0.547,0.102,1.131,0.152,1.751,0.152c0.817,0,1.576-0.069,2.278-0.212
		c0.702-0.142,1.327-0.311,1.875-0.506c0.547-0.195,1.013-0.391,1.396-0.586s0.665-0.347,0.845-0.454v-2.783H399.955z"/>
	<path fill="#FFFFFF" d="M428.904,800.919v-2.856h4.676v2.856H428.904z"/>
	<path fill="#FFFFFF" d="M479.583,793.976c0,1.095-0.264,2.091-0.787,2.988c-0.525,0.898-1.269,1.668-2.229,2.307
		c-0.96,0.642-2.121,1.137-3.481,1.487c-1.362,0.353-2.889,0.527-4.577,0.527c-1.739,0-3.294-0.176-4.663-0.527
		c-1.37-0.352-2.535-0.847-3.495-1.487c-0.96-0.639-1.694-1.407-2.202-2.307c-0.509-0.897-0.763-1.895-0.763-2.988
		c0-1.104,0.262-2.104,0.787-3.003c0.523-0.897,1.268-1.67,2.228-2.313c0.959-0.646,2.124-1.144,3.494-1.494s2.899-0.527,4.59-0.527
		c1.724,0,3.272,0.176,4.651,0.527c1.378,0.352,2.542,0.85,3.494,1.494c0.95,0.645,1.682,1.416,2.189,2.313
		C479.328,791.871,479.583,792.872,479.583,793.976z M475.596,793.976c0-0.858-0.177-1.623-0.529-2.293
		c-0.354-0.668-0.846-1.233-1.477-1.698c-0.632-0.464-1.383-0.814-2.252-1.056c-0.87-0.237-1.821-0.357-2.854-0.357
		c-1.034,0-1.984,0.12-2.854,0.357c-0.87,0.24-1.621,0.592-2.252,1.056c-0.633,0.465-1.124,1.03-1.478,1.698
		c-0.354,0.67-0.528,1.435-0.528,2.293c0,0.851,0.176,1.609,0.528,2.277c0.354,0.67,0.85,1.233,1.488,1.692
		c0.641,0.459,1.395,0.809,2.265,1.048c0.869,0.239,1.821,0.357,2.854,0.357s1.98-0.118,2.843-0.357s1.607-0.589,2.239-1.048
		c0.631-0.459,1.123-1.022,1.477-1.692C475.419,795.585,475.596,794.825,475.596,793.976z"/>
	<path fill="#FFFFFF" d="M515.569,788.849h-0.295c-0.901,0-1.788,0.049-2.658,0.146c-0.868,0.098-1.686,0.247-2.447,0.447
		c-0.763,0.199-1.452,0.445-2.067,0.738s-1.128,0.641-1.538,1.04v9.697h-3.813v-13.916h2.952l0.738,2.212h0.074
		c0.377-0.361,0.841-0.698,1.391-1.011c0.549-0.313,1.169-0.586,1.857-0.82c0.688-0.233,1.442-0.418,2.265-0.549
		c0.819-0.133,1.682-0.198,2.584-0.198c0.163,0,0.332,0.003,0.504,0.007c0.173,0.007,0.324,0.014,0.455,0.022L515.569,788.849
		L515.569,788.849z"/>
	<path fill="#FFFFFF" d="M545.822,786.637c1.019,0.01,1.903,0.088,2.658,0.234c0.754,0.146,1.402,0.329,1.944,0.55
		c0.541,0.219,0.972,0.438,1.292,0.651c0.318,0.215,0.537,0.386,0.65,0.513h0.1l0.788-1.582h2.879v14.736
		c0,1.073-0.295,2.009-0.886,2.805c-0.592,0.796-1.419,1.458-2.485,1.985c-1.067,0.526-2.351,0.92-3.852,1.179
		s-3.162,0.389-4.983,0.389c-1.542,0-2.921-0.08-4.135-0.242c-1.214-0.159-2.165-0.354-2.854-0.577v-1.92
		c0.559,0.138,1.1,0.251,1.624,0.346c0.525,0.092,1.066,0.17,1.624,0.233c0.559,0.063,1.128,0.109,1.711,0.14
		c0.582,0.028,1.228,0.044,1.933,0.044c2.739,0,4.84-0.381,6.3-1.144c1.46-0.762,2.189-1.924,2.189-3.485v-1.86h-0.073
		c-0.836,0.547-1.81,0.959-2.916,1.238c-1.107,0.276-2.375,0.417-3.803,0.417c-0.655,0-1.361-0.044-2.115-0.132
		c-0.756-0.089-1.511-0.236-2.266-0.447c-0.755-0.209-1.477-0.487-2.165-0.834s-1.297-0.781-1.82-1.305
		c-0.525-0.521-0.947-1.141-1.269-1.854c-0.32-0.713-0.479-1.538-0.479-2.476c0-1.3,0.295-2.425,0.886-3.377
		c0.591-0.951,1.369-1.74,2.338-2.365c0.968-0.625,2.075-1.092,3.322-1.398C543.205,786.79,544.493,786.637,545.822,786.637z
		 M539.399,794.049c0,1.094,0.222,1.987,0.664,2.681c0.443,0.693,1.005,1.233,1.688,1.619c0.681,0.387,1.423,0.649,2.227,0.791
		c0.804,0.143,1.566,0.212,2.289,0.212c1.181,0,2.288-0.142,3.322-0.425c1.033-0.283,1.943-0.669,2.73-1.157v-7.279
		c-0.213-0.177-0.509-0.376-0.886-0.602c-0.378-0.225-0.816-0.433-1.316-0.622c-0.5-0.19-1.07-0.352-1.711-0.483
		c-0.64-0.131-1.337-0.197-2.092-0.197c-1.132,0-2.129,0.135-2.99,0.402c-0.86,0.27-1.582,0.643-2.164,1.121
		c-0.583,0.479-1.021,1.053-1.316,1.721C539.546,792.499,539.399,793.238,539.399,794.049z"/>
	<path fill="#FFFFFF" d="M581.267,800.919v-2.856h4.676v2.856H581.267z"/>
	<path fill="#FFFFFF" d="M620.379,801.285c-1.214,0-2.306-0.078-3.272-0.234c-0.969-0.156-1.816-0.376-2.548-0.659
		c-0.729-0.282-1.35-0.623-1.856-1.018c-0.51-0.396-0.911-0.828-1.206-1.297c-0.229-0.353-0.395-0.737-0.492-1.157
		c-0.099-0.42-0.147-0.879-0.147-1.377v-8.54h3.814v8.525c0,0.771,0.172,1.416,0.517,1.934c0.395,0.586,1.029,1.047,1.907,1.385
		c0.877,0.336,1.997,0.505,3.359,0.505c1.442,0,2.604-0.186,3.481-0.557c0.877-0.371,1.505-0.869,1.882-1.494
		c0.279-0.479,0.419-1.069,0.419-1.771v-8.525h3.814v8.555c0,0.47-0.046,0.906-0.136,1.312c-0.09,0.406-0.233,0.778-0.432,1.121
		c-0.295,0.479-0.7,0.921-1.218,1.326c-0.517,0.404-1.153,0.754-1.907,1.047c-0.755,0.293-1.629,0.52-2.621,0.682
		C622.746,801.204,621.626,801.285,620.379,801.285z"/>
	<path fill="#FFFFFF" d="M668.558,799.381h-0.102c-0.321,0.234-0.729,0.467-1.22,0.696c-0.49,0.229-1.058,0.435-1.7,0.615
		c-0.644,0.18-1.347,0.323-2.107,0.432s-1.574,0.161-2.438,0.161c-1.168,0-2.238-0.102-3.212-0.3
		c-0.974-0.2-1.812-0.493-2.514-0.879c-0.703-0.387-1.248-0.857-1.638-1.414c-0.391-0.558-0.584-1.188-0.584-1.891
		c0-0.692,0.216-1.313,0.646-1.859c0.432-0.548,1.037-1.012,1.815-1.393c0.777-0.381,1.714-0.674,2.806-0.879
		s2.298-0.308,3.618-0.308c1.253,0.01,2.412,0.072,3.479,0.189c1.067,0.117,2.016,0.265,2.845,0.439h0.102v-0.967
		c0-0.382-0.042-0.719-0.127-1.012s-0.229-0.552-0.432-0.775c-0.44-0.47-1.144-0.856-2.107-1.165
		c-0.965-0.308-2.269-0.461-3.91-0.461c-1.219,0-2.365,0.065-3.439,0.196c-1.075,0.134-2.146,0.315-3.212,0.551v-1.904
		c0.406-0.117,0.884-0.229,1.435-0.329c0.55-0.104,1.13-0.191,1.739-0.264c0.609-0.074,1.253-0.131,1.93-0.169
		c0.678-0.039,1.354-0.06,2.031-0.06c2.438,0,4.431,0.249,5.979,0.747c1.549,0.498,2.662,1.157,3.34,1.979
		c0.254,0.313,0.436,0.656,0.546,1.031c0.108,0.377,0.165,0.789,0.165,1.238v9.287h-3.302L668.558,799.381z M668.355,794.811
		c-0.725-0.116-1.584-0.229-2.578-0.337c-0.994-0.107-2.089-0.166-3.286-0.176c-1.668,0-2.974,0.205-3.918,0.615
		c-0.942,0.41-1.415,1.04-1.415,1.89c0,0.431,0.118,0.807,0.354,1.128c0.236,0.322,0.561,0.589,0.974,0.799
		c0.412,0.211,0.901,0.365,1.466,0.47c0.564,0.102,1.167,0.152,1.809,0.152c0.842,0,1.626-0.069,2.35-0.212
		c0.726-0.142,1.369-0.311,1.936-0.506c0.563-0.195,1.045-0.391,1.439-0.586c0.396-0.195,0.688-0.347,0.872-0.454v-2.783H668.355z"
		/>
</g>
<g>
	<path fill="#FFFFFF" d="M2.641,568.741h4.39l8.356,15.824h0.172l8.577-15.824h4.39l-16.66,30.055H7.505l5.749-10.28L2.641,568.741z
		"/>
	<path fill="#FFFFFF" d="M82.694,578.617l11.725-9.876h5.607l-12.149,10.046l12.886,10.132h-5.664l-12.404-9.877h-0.057v9.877h-4.39
		v-20.178h4.39v9.876H82.694z"/>
	<path fill="#FFFFFF" d="M174.946,578.596c0,1.402-0.185,2.645-0.555,3.728s-0.858,2.029-1.465,2.835
		c-0.607,0.808-1.318,1.484-2.133,2.029s-1.66,0.984-2.532,1.317c-0.873,0.333-1.759,0.573-2.66,0.722
		c-0.901,0.148-1.75,0.223-2.545,0.223c-1.65,0-3.082-0.202-4.295-0.605c-1.214-0.404-2.304-1.002-3.271-1.795h-0.083v11.746H151.1
		v-30.055h3.313l0.935,2.294h0.085c0.245-0.283,0.562-0.559,0.949-0.829c0.387-0.269,0.906-0.555,1.558-0.86
		c0.652-0.305,1.435-0.57,2.351-0.796c0.916-0.227,1.912-0.34,2.988-0.34c1.51,0,2.969,0.191,4.375,0.573
		c1.406,0.382,2.648,0.991,3.724,1.827c1.076,0.836,1.94,1.908,2.591,3.218C174.62,575.138,174.946,576.727,174.946,578.596z
		 M170.358,578.639c0-1.175-0.167-2.23-0.499-3.165c-0.333-0.935-0.831-1.731-1.496-2.389c-0.665-0.659-1.481-1.165-2.449-1.519
		c-0.968-0.354-2.089-0.531-3.361-0.531c-0.911,0-1.742,0.092-2.492,0.276c-0.75,0.185-1.429,0.418-2.037,0.701
		c-0.608,0.283-1.13,0.588-1.566,0.913c-0.437,0.326-0.788,0.616-1.054,0.871v10.557c0.93,0.708,1.989,1.267,3.176,1.678
		c1.187,0.411,2.463,0.616,3.831,0.616c0.835,0,1.718-0.117,2.648-0.351s1.79-0.651,2.578-1.253s1.438-1.419,1.951-2.453
		C170.101,581.556,170.358,580.239,170.358,578.639z"/>
	<path fill="#FFFFFF" d="M242.87,586.689h-0.113c-0.359,0.34-0.812,0.677-1.359,1.009c-0.548,0.333-1.18,0.63-1.897,0.892
		c-0.718,0.262-1.501,0.471-2.351,0.626c-0.85,0.155-1.756,0.234-2.719,0.234c-1.303,0-2.497-0.146-3.583-0.436
		c-1.086-0.29-2.021-0.715-2.804-1.274c-0.784-0.56-1.393-1.243-1.827-2.05c-0.435-0.807-0.651-1.721-0.651-2.74
		c0-1.005,0.241-1.904,0.722-2.697s1.156-1.466,2.025-2.018c0.868-0.553,1.912-0.978,3.129-1.274
		c1.218-0.298,2.563-0.446,4.036-0.446c1.397,0.014,2.69,0.106,3.88,0.276c1.19,0.17,2.247,0.382,3.172,0.637h0.113v-1.401
		c0-0.553-0.047-1.041-0.142-1.466c-0.095-0.425-0.255-0.8-0.481-1.126c-0.491-0.68-1.274-1.242-2.351-1.688
		c-1.076-0.446-2.53-0.669-4.361-0.669c-1.359,0-2.639,0.096-3.837,0.287c-1.199,0.191-2.393,0.457-3.583,0.796v-2.762
		c0.453-0.17,0.986-0.33,1.6-0.478c0.613-0.149,1.26-0.276,1.94-0.382c0.68-0.106,1.397-0.188,2.152-0.244
		c0.755-0.057,1.51-0.085,2.266-0.085c2.719,0,4.942,0.361,6.669,1.083s2.969,1.678,3.724,2.867
		c0.283,0.454,0.486,0.953,0.609,1.498c0.123,0.545,0.184,1.144,0.184,1.795v13.466h-3.682L242.87,586.689z M242.644,580.062
		c-0.809-0.17-1.767-0.333-2.876-0.488c-1.109-0.155-2.33-0.241-3.665-0.255c-1.86,0-3.317,0.297-4.37,0.892
		c-1.053,0.595-1.579,1.508-1.579,2.74c0,0.624,0.131,1.168,0.395,1.636c0.263,0.467,0.625,0.853,1.085,1.158
		c0.46,0.305,1.005,0.531,1.635,0.68c0.629,0.148,1.301,0.223,2.016,0.223c0.939,0,1.813-0.103,2.622-0.308s1.527-0.45,2.157-0.733
		s1.166-0.566,1.607-0.85c0.441-0.283,0.765-0.502,0.973-0.658V580.062L242.644,580.062z"/>
	<path fill="#FFFFFF" d="M295.558,564.047V560.5h4.503v3.547H295.558z M301.053,588.919v-20.178h4.39v20.178H301.053z
		 M306.349,564.047V560.5h4.503v3.547H306.349z"/>
	<path fill="#FFFFFF" d="M377.417,588.919v-9.027h-13.566v9.027h-4.39v-20.178h4.39v8.326h13.565v-8.326h4.39v20.178H377.417z"/>
	<path fill="#FFFFFF" d="M447.097,568.21c1.303,0,2.549,0.103,3.738,0.308c1.188,0.206,2.209,0.492,3.059,0.86v2.74
		c-1.189-0.34-2.284-0.595-3.285-0.765s-2.021-0.255-3.059-0.255c-1.095,0-2.182,0.134-3.257,0.403
		c-1.076,0.269-2.039,0.711-2.89,1.328c-0.85,0.616-1.533,1.43-2.053,2.442c-0.52,1.013-0.779,2.27-0.779,3.77
		c0,1.091,0.193,2.096,0.581,3.017c0.388,0.92,0.963,1.717,1.729,2.389c0.765,0.673,1.723,1.197,2.874,1.572
		c1.15,0.375,2.481,0.563,3.992,0.563c1.096,0,2.199-0.088,3.313-0.266c1.114-0.177,2.199-0.428,3.257-0.754v2.74
		c-0.32,0.142-0.741,0.284-1.26,0.425c-0.521,0.142-1.091,0.266-1.714,0.372s-1.284,0.191-1.982,0.255
		c-0.698,0.063-1.396,0.096-2.096,0.096c-1.813,0-3.525-0.206-5.14-0.616c-1.615-0.41-3.026-1.041-4.234-1.891
		s-2.162-1.925-2.86-3.229c-0.697-1.302-1.048-2.846-1.048-4.63c0-1.331,0.186-2.528,0.553-3.59
		c0.368-1.062,0.873-1.997,1.516-2.804c0.642-0.807,1.393-1.494,2.252-2.061c0.857-0.566,1.773-1.03,2.747-1.391
		c0.972-0.361,1.978-0.623,3.016-0.786C445.105,568.289,446.116,568.21,447.097,568.21z"/>
	<path fill="#FFFFFF" d="M510.604,568.741v7.774c0.83-0.085,1.724-0.152,2.676-0.202c0.953-0.05,1.874-0.075,2.763-0.075
		c2.039,0,3.785,0.16,5.238,0.478c1.453,0.319,2.652,0.758,3.598,1.317c0.942,0.56,1.638,1.222,2.081,1.986
		c0.442,0.764,0.666,1.593,0.666,2.485c0,1.147-0.331,2.138-0.991,2.974c-0.661,0.835-1.577,1.522-2.747,2.06
		c-1.171,0.539-2.56,0.935-4.163,1.189c-1.605,0.255-3.361,0.383-5.268,0.383c-1.624,0-3.131-0.067-4.519-0.202
		c-1.388-0.134-2.629-0.329-3.724-0.584v-19.583H510.604z M514.852,586.307c1.228,0,2.346-0.075,3.355-0.223
		c1.01-0.149,1.874-0.375,2.592-0.68c0.717-0.305,1.27-0.694,1.655-1.168c0.388-0.474,0.581-1.03,0.581-1.667
		c0-0.51-0.142-0.98-0.425-1.413c-0.283-0.433-0.731-0.804-1.346-1.115s-1.393-0.556-2.336-0.733
		c-0.944-0.177-2.077-0.266-3.398-0.266c-0.643,0-1.374,0.021-2.194,0.064c-0.821,0.043-1.732,0.121-2.732,0.234v6.69
		c0.585,0.099,1.26,0.17,2.024,0.212C513.392,586.284,514.134,586.307,514.852,586.307z"/>
	<path fill="#FFFFFF" d="M584.108,578.617l11.726-9.876h5.606l-12.148,10.046l12.886,10.132h-5.664l-12.404-9.877h-0.057v9.877
		h-4.391v-20.178h4.391v9.876H584.108z"/>
	<path fill="#FFFFFF" d="M668.259,586.689h-0.113c-0.357,0.34-0.812,0.677-1.359,1.009c-0.547,0.332-1.18,0.63-1.896,0.892
		c-0.717,0.262-1.501,0.471-2.351,0.626c-0.851,0.155-1.757,0.234-2.72,0.234c-1.303,0-2.497-0.146-3.582-0.436
		c-1.086-0.29-2.021-0.715-2.804-1.274c-0.784-0.56-1.393-1.243-1.827-2.05c-0.434-0.807-0.65-1.721-0.65-2.74
		c0-1.005,0.24-1.904,0.723-2.697s1.156-1.466,2.023-2.018c0.868-0.553,1.912-0.978,3.131-1.274
		c1.218-0.298,2.563-0.446,4.034-0.446c1.397,0.014,2.69,0.106,3.881,0.276c1.189,0.17,2.247,0.382,3.172,0.637h0.112v-1.401
		c0-0.553-0.047-1.041-0.142-1.466c-0.095-0.425-0.255-0.8-0.481-1.126c-0.49-0.68-1.273-1.242-2.351-1.688
		c-1.076-0.446-2.53-0.669-4.361-0.669c-1.358,0-2.639,0.096-3.837,0.287c-1.199,0.191-2.394,0.457-3.583,0.796v-2.762
		c0.453-0.17,0.986-0.33,1.602-0.478c0.612-0.149,1.26-0.276,1.938-0.382c0.68-0.106,1.397-0.188,2.152-0.244
		s1.511-0.085,2.266-0.085c2.719,0,4.942,0.361,6.67,1.083c1.729,0.722,2.969,1.678,3.725,2.867
		c0.282,0.454,0.485,0.953,0.608,1.498c0.122,0.545,0.185,1.144,0.185,1.795v13.466h-3.683L668.259,586.689z M668.033,580.062
		c-0.808-0.17-1.767-0.333-2.876-0.488c-1.107-0.156-2.329-0.241-3.663-0.255c-1.861,0-3.317,0.297-4.37,0.892
		c-1.054,0.595-1.579,1.508-1.579,2.74c0,0.624,0.132,1.168,0.396,1.636c0.264,0.467,0.624,0.853,1.085,1.158
		c0.46,0.305,1.006,0.531,1.636,0.68c0.63,0.148,1.302,0.223,2.016,0.223c0.94,0,1.813-0.103,2.622-0.308
		c0.808-0.205,1.527-0.45,2.157-0.733c0.629-0.283,1.165-0.566,1.605-0.85c0.442-0.283,0.767-0.502,0.974-0.658v-4.037H668.033z"/>
</g>
</svg>
